<svg width="71" height="62" viewBox="0 0 71 62" fill="none" xmlns="http://www.w3.org/2000/svg">
<path d="M65.6717 27.7437C65.4548 26.6138 64.4666 25.7968 63.3161 25.7961H60.9989L60.8285 24.7749C60.6585 23.7492 59.8504 22.9479 58.8233 22.7865C58.5953 22.7505 58.3649 22.7265 58.1381 22.6953C58.531 20.8608 58.2046 18.9453 57.2261 17.3445C57.743 16.0035 57.6466 14.5033 56.962 13.2395C56.2775 11.9758 55.0737 11.0754 53.6681 10.7757C52.7694 5.96611 48.5852 2.46999 43.6925 2.44053C43.5725 2.44053 43.4657 2.45613 43.3517 2.45973C42.5699 1.23195 41.2809 0.417087 39.8365 0.237432C38.3921 0.0577773 36.9428 0.532068 35.8841 1.53093C34.5503 0.663947 32.994 0.201733 31.4033 0.200128C28.8401 0.210617 26.4245 1.4003 24.8537 3.42573C23.1095 2.91713 21.2287 3.22941 19.7425 4.27438C18.2563 5.31935 17.326 6.98355 17.2145 8.79693C15.3825 9.56702 14.1904 11.3601 14.1893 13.3473C14.193 13.6918 14.2332 14.0349 14.3093 14.3709C12.6891 16.8133 12.2658 19.8593 13.1585 22.6509C12.8369 22.6953 12.5081 22.7349 12.1985 22.7805C11.166 22.9363 10.3507 23.7381 10.1777 24.7677L10.0073 25.7925H7.68406C6.53548 25.7933 5.54847 26.6078 5.32966 27.7353L0.0748638 54.7137C-0.130354 55.7703 0.147932 56.8632 0.83344 57.693C1.51895 58.5228 2.53976 59.0023 3.61606 59.0001H28.6409C29.6345 60.6393 32.6537 61.4001 35.5001 61.4001C38.3165 61.4001 41.3069 60.6573 42.3293 59.0001H67.3841C68.4601 59.0022 69.4807 58.5229 70.1661 57.6934C70.8516 56.8639 71.1301 55.7713 70.9253 54.7149L65.6717 27.7437ZM17.8181 15.5193C16.8437 14.9335 16.3787 13.7705 16.6806 12.6745C16.9824 11.5784 17.9772 10.8174 19.1141 10.8129C19.9097 10.8106 20.6585 11.1888 21.1289 11.8305C21.3844 12.1748 21.8041 12.3566 22.23 12.3074C22.6559 12.2583 23.0233 11.9856 23.1936 11.5922C23.364 11.1988 23.3116 10.7444 23.0561 10.4001C22.2412 9.31107 21.0064 8.61439 19.6529 8.48013C20.0106 6.79955 21.4926 5.59646 23.2109 5.59173C23.3573 5.59915 23.5031 5.61518 23.6477 5.63973C23.5511 5.88575 23.467 6.13646 23.3957 6.39093C23.2463 7.02615 23.6319 7.66428 24.2637 7.82746C24.8955 7.99063 25.5419 7.61903 25.7189 6.99093C25.8553 6.46351 26.065 5.9578 26.3417 5.48853C27.4061 3.70526 29.3265 2.60941 31.4033 2.60013C32.5335 2.60513 33.638 2.93867 34.5821 3.56013C34.4022 4.06546 34.3069 4.59699 34.3001 5.13333C34.3001 5.79607 34.8373 6.33333 35.5001 6.33333C36.1628 6.33333 36.7001 5.79607 36.7001 5.13333C36.7001 3.73925 37.8302 2.60913 39.2243 2.60913C40.6183 2.60913 41.7485 3.73925 41.7485 5.13333C41.7485 5.79607 42.2857 6.33333 42.9485 6.33333C43.6112 6.33333 44.1485 5.79607 44.1485 5.13333C44.1485 5.04093 44.1257 4.95333 44.1209 4.86093C47.5569 5.07293 50.4462 7.51535 51.2273 10.8681C50.6675 11.0311 50.1416 11.2933 49.6745 11.6421C49.3315 11.8994 49.1518 12.32 49.2031 12.7457C49.2544 13.1713 49.5288 13.5373 49.9231 13.7057C50.3173 13.8741 50.7715 13.8194 51.1145 13.5621C52.0734 12.8522 53.398 12.9088 54.2929 13.698C55.1877 14.4872 55.4094 15.7944 54.8249 16.8345C54.5636 17.2938 54.1667 17.661 53.6885 17.8857C53.187 18.1285 52.9186 18.6846 53.0405 19.2283C53.1624 19.772 53.6425 20.1603 54.1997 20.1657C54.3756 20.166 54.5494 20.1271 54.7085 20.0517C55.0265 19.8976 55.327 19.7097 55.6049 19.4913C56.2252 21.2548 55.8361 23.2161 54.5897 24.6093L54.5609 24.6393C52.9975 26.3329 50.5037 26.7906 48.4409 25.7625C48.2388 25.6558 48.0447 25.5347 47.8601 25.4001C48.7439 24.161 48.866 22.5333 48.1769 21.1761C47.9839 20.7931 47.6013 20.542 47.1731 20.5176C46.7449 20.4931 46.3362 20.699 46.1009 21.0576C45.8656 21.4162 45.8395 21.8731 46.0325 22.2561C46.4271 23.0493 46.1809 24.0118 45.4541 24.5181C45.0272 24.8023 44.4999 24.8922 44.003 24.7655C43.5061 24.6387 43.0863 24.3072 42.8477 23.8533C42.6558 23.4698 42.2739 23.2178 41.8459 23.1922C41.4179 23.1666 41.0087 23.3713 40.7725 23.7292C40.5363 24.0871 40.509 24.5438 40.7009 24.9273C41.4046 26.348 42.8547 27.2452 44.4401 27.2409C44.9562 27.2374 45.4671 27.1369 45.9461 26.9445C46.3747 27.3198 46.8469 27.6421 47.3525 27.9045C49.0627 28.791 51.0515 28.9749 52.8953 28.4169C51.7094 30.0361 49.9346 31.1244 47.9537 31.4469C47.3374 31.5473 46.901 32.1034 46.9502 32.7259C46.9994 33.3483 47.5177 33.829 48.1421 33.8313C48.2059 33.8313 48.2697 33.8265 48.3329 33.8169C49.0636 33.6904 49.7777 33.4819 50.4617 33.1953C50.8313 33.8489 51.1314 34.5395 51.3569 35.2557C51.3982 35.3808 51.4192 35.5116 51.4193 35.6433C51.419 36.162 51.1092 36.6304 50.6321 36.8337C50.0801 37.0472 49.4534 36.8788 49.0829 36.4173C48.1535 35.326 46.9366 34.5173 45.5705 34.0833C42.9773 33.2145 41.9765 32.4381 41.5517 31.5933C42.1743 31.5156 42.7895 31.3872 43.3913 31.2093C43.8011 31.0833 44.1126 30.7482 44.2084 30.3302C44.3041 29.9122 44.1697 29.4749 43.8556 29.183C43.5415 28.8911 43.0955 28.7889 42.6857 28.9149C42.0123 29.1215 41.3173 29.2492 40.6145 29.2953C39.2605 29.4012 37.9002 29.1959 36.6377 28.6953C36.1636 28.5105 35.6245 28.6446 35.2925 29.0301C33.5453 31.0371 30.555 31.3782 28.4008 29.8163C26.2465 28.2544 25.641 25.3063 27.0053 23.0217C27.2263 22.6528 27.2337 22.194 27.0247 21.8182C26.8157 21.4423 26.4221 21.2065 25.9921 21.1996C25.5621 21.1926 25.1611 21.4156 24.9401 21.7845C24.6538 22.2718 24.4235 22.7899 24.2537 23.3289C23.3087 23.2792 22.5636 22.5063 22.5485 21.5601V21.5301C22.5478 21.2135 22.4207 20.9102 22.1954 20.6878C21.97 20.4654 21.6651 20.3422 21.3485 20.3457C20.6829 20.3523 20.1471 20.8945 20.1485 21.5601C20.1538 23.6883 21.7587 25.472 23.8745 25.7013C23.8788 26.1036 23.9153 26.5049 23.9837 26.9013C21.3043 27.4811 18.5253 26.518 16.7793 24.4046C15.0333 22.2911 14.6119 19.3803 15.6869 16.8585C15.9553 17.1301 16.255 17.369 16.5797 17.5701C17.1465 17.9022 17.8751 17.7167 18.2141 17.1539C18.5531 16.5912 18.3766 15.8605 17.8181 15.5145V15.5193ZM12.5381 25.1589C13.0913 25.0773 13.6625 25.0053 14.2301 24.9309C16.4488 28.4765 20.6922 30.1981 24.7541 29.2005C25.8455 31.2719 27.8397 32.7165 30.1482 33.1077C32.4566 33.499 34.8155 32.7922 36.5285 31.1961C37.344 31.4394 38.1839 31.5915 39.0329 31.6497C39.6125 33.8481 41.2877 35.1801 44.8073 36.3597C45.7561 36.6572 46.6025 37.2147 47.2505 37.9689C47.9708 38.8255 49.0305 39.3233 50.1497 39.3309C50.6391 39.3308 51.1236 39.232 51.5741 39.0405C52.9343 38.4592 53.8167 37.1226 53.8169 35.6433C53.818 35.2575 53.7564 34.8741 53.6345 34.5081C53.3646 33.6603 53.0092 32.842 52.5737 32.0661C54.6142 30.5992 56.0357 28.4253 56.5613 25.9677C56.8168 25.6641 57.048 25.3407 57.2525 25.0005C57.6545 25.0521 58.0565 25.0977 58.4609 25.1649L62.7929 51.2217C54.3251 48.3942 45.1679 48.3942 36.7001 51.2217V36.2001C36.7001 35.5374 36.1628 35.0001 35.5001 35.0001C34.8373 35.0001 34.3001 35.5374 34.3001 36.2001V51.2265C25.8332 48.3964 16.6762 48.393 8.20726 51.2169L12.5381 25.1589ZM2.68126 56.1585C2.45452 55.8846 2.36209 55.5237 2.42926 55.1745L7.68406 28.1961H9.60406L5.83846 50.8269C5.70602 51.6507 6.00932 52.4843 6.64014 53.0303C7.27097 53.5763 8.13944 53.7569 8.93566 53.5077C15.3329 51.4352 22.1482 51.0027 28.7561 52.2501L28.3985 56.6001H3.61606C3.25405 56.6004 2.91098 56.4383 2.68126 56.1585ZM35.5001 59.0001C32.6093 59.0001 30.9509 58.1457 30.7073 57.7653L31.1201 52.7853C32.4396 53.1139 33.7308 53.5468 34.9817 54.0801C35.1434 54.1581 35.3205 54.1991 35.5001 54.2001C35.6801 54.1999 35.8577 54.1588 36.0197 54.0801C37.2697 53.5437 38.5606 53.1079 39.8801 52.7769L40.2929 57.7641C40.0493 58.1457 38.3909 59.0001 35.5001 59.0001ZM68.3189 56.1585C68.0891 56.4383 67.7461 56.6004 67.3841 56.6001H42.6053L42.2453 52.2417C48.8568 50.9969 55.6751 51.433 62.0741 53.5101C62.8701 53.756 63.7367 53.5728 64.3651 53.0258C64.9935 52.4787 65.2943 51.6457 65.1605 50.8233L61.3985 28.1973H63.3185L68.5745 55.1733C68.641 55.5234 68.5472 55.8849 68.3189 56.1585Z" fill="#FFAB71"/>
</svg>
